<svg version="1.2"
  xmlns="http://www.w3.org/2000/svg" viewBox="0 0 2801 2801">
  <title>Sad duck</title>
  <style>
		.s0 { fill: #000000 } 
		.s1 { fill: #ffd112 } 
		.s2 { fill: #fe9527 } 
		.s3 { opacity: .4;fill: #ffffff } 
		.s4 { opacity: .3;fill: #390178 } 
		.s5 { fill: #390178 } 
		.s6 { fill: #ffffff } 
		.s7 { fill: #a9a0b5 } 
  </style>
  <path id="shadow" class="s0" d="m2433.2 2608c0 106.4-462.6 192.6-1033.2 192.6-570.6 0-1033.2-86.2-1033.2-192.6 0-106.3 462.6-192.5 1033.2-192.5 570.6 0 1033.2 86.2 1033.2 192.5z"/>
  <path class="s1" d="m1926.1 1509.9c0 0 196.8 244.7 203.7 613.4 0 0 51.6-13.3 69 21.5 17.4 34.8 15.7 87 15.7 87 0 0 62.6-33.1 80 0 17.4 33-125.2 394.8-506.2 384.4 0 0-85.2 52.2-293.9 26.7l-128.8 19.7c0 0-40.6 82.3-114.8 82.3-74.2 0-114.8-81.2-114.8-81.2l-113.6-25.5-204.1 3.5c0 0-56.8 63.8-133.4 45.2-76.5-18.5-244.7-416.3-248.1-451.1-3.5-34.8 63.7-45.2 102 13.9 0 0 5.8-117.1 56.8-122.3 51.1-5.2 87 107.3 87 107.3 0 0 23.2-68.5 60.3-71.9 37.1-3.5 52.2 34.8 52.2 34.8 0 0-4.6-164.7 47.5-272.6 52.2-107.8 133.8-178.5 166.1-269 32.2-90.4 740.3-219.2 917.4-146.1z"/>
  <path class="s2" d="m826.8 2449.3c0 0-4.6-149-26-219.4-21.4-70.3-36.1-68.3-57.9-67.1-21.7 1.1-55.4 59.6-55.4 59.6 0 0-1.8 6.7-10-2-8.2-8.6-38.4-102.4-85.1-92.5-46.7 9.9-55.4 109.7-55.4 109.7l-5.7 1.8c0 0-42.5-42.3-75.3-29.6-32.7 12.6-12.4 47.1-4.8 70.6 7.5 23.5 84.9 213.6 153.8 318.5 68.9 104.8 76.5 93.6 119.1 90.9 42.7-2.7 84.3-47.9 94.2-48.1 9.8-0.2 179 0.3 180.3-3.5 1.3-3.8 0-18 0-18 0 0-29.1-29.7-30.7-31.6-1.6-1.9-39.5-63-46.6-71-7.1-8-23.1-34.8-23.1-34.8l-58.8-9.3-12.6-6.9zm207.8-12.3c0 0-49.6-145.4-18.7-190.4 30.8-45 117.3 24.6 117.3 24.6l8.2-1.1c0 0-10.9-90.8 61.1-102.2 72.1-11.5 121.5 91 121.5 91l6.4 3.5c0 0 41.1-55.2 93.8-41.8 52.8 13.5 45.2 90.1 33.9 144-11.3 53.9-34.3 137.6-34.3 137.6l5.9 6c0 0 76.8-16.9 109.3-15.6 32.5 1.2 57.8 31.7 48.6 88.6-9.2 57-66.8 57.6-106 63.6-39.1 6-104.4 18.9-104.4 18.9 0 0-11.6 1-19.2 11.9-7.6 10.9-34.7 67-107.2 69.3-72.4 2.3-117.3-69.3-149.4-139.8-32.1-70.5-66.8-168.1-66.8-168.1z"/>
  <path class="s3" d="m485.5 2363.7c5.2-6.7-25.3-106.1-13.3-118.5 12-12.4 43.1 35.3 64.1 38.5 21.1 3.3 29.6-16.9 33.3-39.1 3.7-22.2 15-80.2 30.7-83.7 15.6-3.5 42.6 70.2 58.2 101.4 15.7 31.2 37.4 17.7 45.7 6 8.3-11.8 29.1-66.1 45.7-67.4 16.5-1.3 52.6 25.6 52.6 25.6 0 0-7.2-40.9-34.9-59.3-27.7-18.5-50.4 5.8-59.2 18.8-8.9 12.9-23.8 36.6-23.8 36.6 0 0-16.2-18.7-25.5-41.9-9.3-23.3-34.9-61.6-71.9-51.1-36.9 10.4-46.5 110-50.2 108-3.7-1.9-14.6-5.7-15.7-6.9-1-1.1-43.8-33.7-74.6-16.3-30.8 17.4 38.8 149.3 38.8 149.3zm450-263.9c-17.9 89-6.2 162.7 6.5 165.2 12.8 2.6 21.6-66.9 39.5-155.9 17.9-89.1 38.1-164 25.4-166.5-12.7-2.6-53.5 68.2-71.4 157.2zm629.1-163.6c-13 85.6-1.8 154.6 8.7 156.2 10.5 1.6 16.4-64.8 29.4-150.4 12.9-85.6 28-157.9 17.5-159.5-10.5-1.6-42.7 68.1-55.6 153.7zm-534.1 451.5c5.8 0.9 1.7-99.7 19.7-109 18-9.2 60.3 42.9 87.6 40 27.2-2.9 39.4-20.7 40.6-41.1 1.1-20.3 5.2-70.8 46.3-60.9 41.2 9.8 55.7 81.2 81.8 91 26.1 9.9 34.8-15.1 77.1-42.6 42.3-27.5 76 44.9 76 44.9 0 0 15.1-76.7-35.4-89.4-50.4-12.6-85.4 35.3-92.8 36.8-7.4 1.5-10.4 0-10.4 0 0 0-15.4-69.8-80.2-84.8-64.8-15.1-84 23-95 47.5-10.9 24.4-4.4 50-4.4 50 0 0-36.7-16.3-38.4-17.5-1.8-1.1-40.9-25.7-65.4-17.5-24.5 8.3-33.3 19.9-31.8 51.2 1.4 31.2 8.5 99.1 24.7 101.4zm860.1-888.4c0 0 114 200.8 162.7 379.4 48.7 178.5 69 343.2 69 343.2 0 0 7.6-53.9 7.6-53.8 0 0.2 3.3-9.4 3.3-9.4v-5.2c0 0 34.8 4.5 43.5 14.6 8.7 10.2-0.9 84.1 15.2 94.5 16.1 10.5 41.3-10.8 65.6-20.4 24.4-9.6 42.8-2.3 40.5-4.3-2.3-2.1-17.4-24.8-29.6-24.8-12.2 0-49 16.3-49 16.3l-4.9-3.3c0 0-3.5-72.2-19.6-87.7-16.1-15.4-49.6-16.7-51.3-16.7-1.7 0-11.7-5.1-11.7-5.1 0 0-3.8-87.1-24.1-189.9-20.3-102.8-84.4-265.2-122-331.6-37.7-66.4-67-91-72.5-92.7-5.5-1.8-22.7-3.1-22.7-3.1z"/>
  <path class="s4" d="m485.5 2363.7c0 0 151.7 227.3 225.2 236.4 73.5 9.1 100.5-98.3 105.3-96.5 4.7 1.7 8.6 16.4 8.6 16.4l99.2 11.4 50.9 60.4 18.6 23.6c0 0-154.7-9.7-180.4-5.3-25.6 4.3-43.5 54.8-105.2 50.9-61.8-3.9-114.4-87.4-114.4-87.4 0 0-54.3-94-55.6-95.7-1.4-1.7-52.2-114.2-52.2-114.2zm326.6-81.6c0 0 12.9-233.6 92.4-350.4 43.2-63.5 92.4-86.1 92.4-86.1 0 0-178.9 225.8-120.2 534.1l17 71.2 5.4 14.8c0 0-10.9 13.5-13.1 13.1-2.2-0.5-41.6-4.5-41.6-4.5l-12.8-14.2z"/>
  <path class="s4" d="m876.7 2379.7c0 0 63.4 112.4 202.5 178.5l-39.4-121.2c0 0 146.1 187.3 223.8 194.3 77.7 6.9 172.8-186.7 172.8-186.7l-38.5 134.7c0 0 83.7 5 118.5-12.7 34.8-17.7 22.6-74 22.6-74 0 0 22.1-1.4 40.9 28.6 18.8 30 1.5 96.5-28.3 107.4-29.8 10.8-142.5 23-150.6 24.7-8.1 1.7-28.4 4.6-28.4 4.6l-1-9.7c0 0-65.1 68.3-119.6 67.7-54.5-0.6-135.1-104.4-135.1-104.4l8.3 36c0 0-20.5 5.2-22.2 5.2-1.8 0-65.4-16.8-67.9-14.5-2.4 2.3-36.5-18-36.5-18 0 0-112.8-117.4-121.9-240.5zm534-161.1c0 0 46-310.4 177-498.2 0 0-67.3 198-85.5 323.4-18.3 125.3 64.3 331.5 73.9 314.9 9.6-16.5-14.8-127.8 51.3-197.4 21.8-17.4 27.7 121.7 64.4 151.3 36.7 29.7 38.3-27.8 38.3-27.8 0 0 14.7-46.9 14.7-76.5 0-29.6-9.5-81.1-9.5-81.1v-10.6c0 0 50.4 59.5 61.7 50.4 11.3-9.2-18.2-122.2 0-151.8 18.3-29.6 39.2 13.9 53.9 14.8 14.8 0.9 73.1-121.1 10.5-273.2 0 0 43.9 67.1 64.1 141 20.2 73.9 8.1 166.5-46.7 246.1 0 0 26.9 115.7-13.9 129.6-40.9 13.9-82.7-12.2-82.7-12.2 0 0 0.9 155.7-52.1 169.6-30.5 6.1-57.4-6.9-57.4-6.9 0 0-2.7 67.8 48.7 84.3 51.3 16.6 190.4-99.1 197.4-83.5 6.9 15.7 0 74.8 0 74.8 0 0 137.4-24.3 229.6-96.5 92.2-72.2 140-167 140-167 0 0 7.8 84-86.1 179.4-93.9 95.4-266.3 163.3-384 167.2l14.6-16.1c0 0-110.5 64.7-262.4 45.9 0 0 29.3-27.8 15.7-74.7-13.6-46.9-34.4-51.2-34.4-51.2l-115.7 20.2-10.9-9.3c0 0 45.8-157.8 38.8-218.3-7-60.5-53.3-60.6-53.3-60.6z"/>
  <path fill-rule="evenodd" class="s5" d="m1250.8 2762.1c-70.5 0-113.2-61.5-126.1-83.3l-104.1-23.3-195 3.3c-17.2 16.6-72.6 62.3-144.7 44.9-14.3-3.5-57.6-14-162.9-228.7-47.3-96.4-96-214-98.4-237.5-1.9-19.5 9.8-36.7 29.9-43.7 21.5-7.5 51-3.1 76.6 16.7 7-39.8 24.4-95.8 67.8-100.2 42-4.3 72.9 44.3 90 81 12.6-21 31.8-43.3 57.4-45.7 14.6-1.3 26.9 2.1 37.1 7.9 2.3-57.6 11.7-159.5 48.7-236 25.2-52 56.4-94.7 86.5-136 32.2-44 62.6-85.7 78.9-131.3 6.8-19 29.4-36.5 71.3-55.1 90.3-40.2 265-81.5 445-105.3 94.2-12.4 324.2-36.9 423.8 4.2 2.7 1.1 5.1 2.8 6.9 5.1 8 10 193.8 245 207 604.5 24-1.2 53.7 5.3 67.7 33.5 11 22 15.2 49.4 16.7 69.2 15.6-5.1 35.9-9.2 52.9-3.9 11.5 3.5 20.4 10.9 25.9 21.3 13.3 25.2-16.7 98.3-51.6 154.4-48.3 77.6-188.2 255.5-453.7 255.5q-5.9 0-11.9-0.1c-21.2 10.8-111.9 49-297.9 26.7l-118 18.1c-13.3 22.6-55.8 83.8-125.8 83.8zm-228.4-141.1q1.9 0 3.8 0.4l113.6 25.5c5 1.2 9.3 4.5 11.6 9.1 0.4 0.7 37 71.7 99.4 71.7 62.4 0 99-72 99.4-72.8 2.5-5 7.3-8.5 12.8-9.3l128.7-19.8q2.4-0.3 4.7 0c198.6 24.2 282.2-23.9 283-24.4 2.8-1.6 6.1-2.5 9.4-2.4 197.2 5.4 322.5-91.9 392.8-174.4 73.2-86 98.7-169.7 97.1-185.7-7.7-10.9-40.6-0.1-56.2 8.1-5.4 2.8-12 2.6-17.2-0.7-5.1-3.2-8.2-9-8-15.1 0-0.5 1.3-48.3-13.9-78.7-10.9-21.8-48.9-12.6-49.3-12.5-5.1 1.3-10.5 0.2-14.7-3-4.2-3.2-6.7-8.1-6.8-13.3-6.3-334.8-173.9-568.5-197.3-599.5-66-24.7-215.5-24.9-402-0.3-177 23.4-348 63.7-435.5 102.6-45.6 20.3-52.1 33-52.9 35.3-17.9 50.3-49.8 93.9-83.5 140-29.2 40.1-59.4 81.5-83.3 130.7-49.7 102.8-45.8 263-45.8 264.6 0.2 8.3-5.6 15.6-13.8 17.3-8.1 1.7-16.4-2.8-19.4-10.5-0.4-1-11-26.2-34.6-24-17.6 1.7-37.6 37-45.6 60.3-2.4 7-8.9 11.6-16.5 11.7-7.4-0.1-13.9-4.9-16.2-12-12.8-40-43.5-97.9-68.8-95.4-24.7 2.5-39.3 64.8-41.4 106.1-0.4 7.5-5.5 13.8-12.7 15.8-7.2 1.9-14.9-1-18.9-7.3-21.2-32.7-50.2-37.5-63.5-32.8-7.5 2.6-7.1 6.4-7 7.8 1.7 14.6 43.2 120.4 95.4 226.7 72.2 146.9 119.5 204.5 139.7 209.4 65.2 15.8 116-39.4 116.5-40 3.2-3.5 7.7-5.6 12.5-5.7l204.1-3.5z"/>
  <path class="s5" d="m1589.2 2454.2c-14.5 0.1-28.7-7.6-42.4-22.8-49.1-54.8-88.4-203.9-64.3-372.5 29.6-206.8 89.1-352.9 91.6-359 3.6-8.8 13.7-13 22.5-9.4 8.8 3.6 13 13.7 9.3 22.5-0.6 1.5-60.4 148.5-89.3 350.7-24 168.1 18.2 302.8 55.8 344.7 7.6 8.4 13.7 11.4 16.9 11.4h0.1c2.4-0.1 4.4-0.7 6.8-3.6 14-16.8 13.2-72.7 8.1-107.1-1.2-8.2 3.6-16.1 11.4-18.8 7.9-2.7 16.5 0.5 20.6 7.7 11.9 20.8 43.8 62 66.5 57 0 0 14.9-9 19.7-87 2.8-43.9 0.8-86.3 0.8-86.7-0.4-7.6 4.2-14.4 11.3-17 7.1-2.6 15-0.3 19.6 5.7 18.5 24.3 44.1 45.7 54.4 45.9 7.9-10.1 12.8-59.7 10.4-106.8-0.4-7 3.6-13.6 10-16.5 2.7-1.3 69.3-34 78.7-144.9 9.7-114.6-100.3-232.6-101.5-233.8-6.5-6.9-6.2-17.8 0.7-24.3 7-6.5 17.9-6.2 24.4 0.7 5 5.3 121.7 130.6 110.7 260.3-8.9 105.6-64.5 152.2-88.2 167.4 2.1 58.3-3.1 124.4-36.7 131.5-19.8 4.2-41.3-8.9-58.7-24.2-0.1 14.5-0.6 31.3-1.7 48.4-5 73.4-19.3 108.8-46.4 114.9-25.7 5.8-49.6-9-68-26.9-0.4 27.9-4.8 58.7-19.6 76.5-8.3 10.1-19.4 15.6-32.1 16z"/>
  <path class="s5" d="m1604.3 2308.9c-4.3-26.5-1.8-52.8 5.6-78.3 2.5-8.5 6.8-17 16.2-22.8 0.9-0.6 2.3-0.1 2.7 0.9 7.5 18 3.8 31.5 5.8 49 1 13.7 3.1 34 3.8 47.2 0.8 21.5-30.1 25-34.1 4zm119.7-123.5c-5.2-16.5-4.7-34-3.5-51 0.4-5.5 1.9-11.2 8.1-17.6 0.8-0.8 2-0.9 2.9-0.4 7.7 4.3 10.8 9.3 12.7 14.5 4.1 10 7.6 20.4 10.1 30.8 1.4 6.2 3.2 12.4 2.5 18.7-0.9 18.5-26.6 22.2-32.8 5zm95.4-73.3c-4.3-13.1-4.6-27.2-4.1-40.9 0.2-4.7 1.4-9.7 7.3-15.7 0.7-0.7 1.8-1 2.8-0.6 7.9 2.8 11.1 6.7 13.3 10.9 6.5 12.1 12.3 25 14.2 38.6 2.4 20.7-26.8 27.2-33.5 7.7zm-683.4 568.8c-5.4 0-10.7-2.5-14-7.2-69.4-98.2-149.5-334-129.6-415.8 3.9-16 11.5-27 22.7-32.7 40.8-21.1 84.3-0.1 111.4 19 3.6-23.4 12-53.4 32-73.1 15.1-14.9 34.1-21.9 56.6-20.9 60.7 2.8 98.4 53.4 116.2 85.1 30.1-29.1 70.5-41.8 102-29.7 22.6 8.6 58.8 36.9 46.8 129.3-19.2 148.5-95.4 326.9-98.6 334.5-3.8 8.7-13.9 12.8-22.7 9-8.7-3.8-12.7-13.9-9-22.6 0.8-1.8 77.6-181.7 96.2-325.4 6.5-50.3-2.6-84.1-25-92.7-23.2-8.8-58.8 8.5-79.4 38.6-3.6 5.3-9.9 8.1-16.3 7.3-6.3-0.7-11.7-4.9-14-10.9-0.3-0.8-33.6-85.2-97.8-88.1-12.5-0.5-22.7 3-30.8 11-21.2 20.8-24.7 66.7-24.2 82.6 0.1 7.1-4 13.6-10.6 16.4-6.5 2.7-14 1.2-19-3.9-0.5-0.5-56.8-56.2-98-34.9-1.1 0.5-3.3 3.3-5 10.2-16.2 66.3 55.8 291 124.2 387.8 5.5 7.8 3.6 18.5-4.1 24-3.1 2.1-6.5 3.1-10 3.1z"/>
  <path class="s5" d="m1494.3 2660.1c-9.1 0-16.7-7.2-17.1-16.5-0.5-9.5 6.9-17.5 16.4-17.9 68.8-3.2 78.9-40.9 78.8-63.1-0.1-29.9-17.5-52.4-26.5-52.7-42.4-1.6-119.8 16.7-120.6 16.9-9.2 2.2-18.5-3.5-20.8-12.7-2.2-9.3 3.5-18.6 12.8-20.8 3.3-0.8 82.9-19.6 129.9-17.8 31.6 1.2 59.5 41.9 59.7 87 0.1 44.7-29.1 93.8-111.8 97.6zm277.1-40.5c-2.7-17.2 14.7-28.8 25.1-39.3 5.6-5.1 16.9-15.5 22.4-20.7 16.3-14.4 25-30.7 44.6-43.1 1-0.7 2.5-0.1 2.7 1.1 2.1 12.6-1.4 23.9-6.7 33.7-13.4 26.8-34.3 49.1-54.9 70.2l-0.3 0.3h-0.1c0.3-0.6 1.1-2.5 1.1-3.5 0.3-1.3 0.4-3.8-0.1-5.5 3.8 22.4-28.6 28.9-33.8 6.8zm375.6-497c1.7 24.8 0.1 48.8-2.9 73.3-4.2 24.7-4.3 49.5-20.4 70.8-0.7 1-2.4 0.8-2.8-0.3-9.9-24.4-5.5-47.4-7.2-72.1-0.4-20.6-1.3-50.5-1.1-70.6 0.8-21.9 32.2-22.9 34.4-1.1zm-1124.7 532.8c-2.9 0-5.8-0.7-8.5-2.3-5.7-3.3-139.6-83.2-161.1-324.1-0.8-9.5 6.2-17.9 15.7-18.7 9.5-0.9 17.8 6.1 18.6 15.6 19.8 222 142.8 296.7 144 297.4 8.2 4.8 11 15.4 6.2 23.6-3.2 5.5-8.9 8.5-14.9 8.5z"/>
  <path class="s5" d="m893.7 2500q-1.4 0-2.8-0.2l-64.9-10.4c-7.9-1.3-13.8-7.8-14.4-15.7-0.2-1.6-13-166.1-33.4-272.9-1.8-9.3 4.3-18.4 13.7-20.2 9.3-1.8 18.3 4.4 20.1 13.7 17.3 90.6 29.2 221.2 32.8 263.2l51.6 8.3c9.4 1.5 15.8 10.4 14.3 19.8-1.4 8.4-8.7 14.4-17 14.4z"/>
  <path class="s5" d="m854.2 2343.1c-12-88.3-0.3-179 23.4-264.4 1-4 3.3-12 4.7-15.9 5.2-15.1 9.9-32.2 16.2-46.9 15.4-40.6 34.6-81.8 57.7-118.4 11.6-18.6 25.4-35.9 39.5-52.7 1-1.2 3.1 0.1 2.4 1.6-7.5 20.1-18 39.8-26.3 59.5-12.9 29.5-26 58.6-37.2 88.8-6.1 18-14.8 42.7-19.4 60.9-1.5 5.2-5.1 18-6.5 23-13.2 54.2-21.5 109.4-23.7 165-1.4 31.3-0.6 63.3 3.2 94.3 2.4 22.1-29.6 27.2-34 5.2zm-8.3 129.3c0.9 22.2-4 43.6-12.3 64.1-2.8 6.8-7.2 13.6-16.3 17.6-1 0.4-2.2 0-2.6-1-4.2-8.8-4.8-15.4-4.5-22 0.6-19-0.2-40.6 1.4-59.3 2.2-21.2 32.9-20.5 34.3 0.6z"/>
  <path class="s4" d="m970.3 1742.1c0 0 604.1 108.2 894.6-189.3 0 0-109.5-7-241.2 0-131.7 7-389.1 76.5-405.3 78.9-16.3 2.3-162.4 9.2-162.4 9.2 0 0-42.4 2.1-47.3 15.1-4.9 13-38.4 86.1-38.4 86.1z"/>
  <path class="s1" d="m1202.1 1682.7c0 0-494 11.6-586.8-248.2-55.6-146.1 7-162.3-32.4-378-39.4-215.7-23.2-596.1 300.3-737.6 17.4-11.6-35.9-37.1-119.4-25.5 0 0 60.3-111.3 245.8-104.3 0 0-44-65-6.9-171.7 0 0 125.2 83.5 331.6 95.1 206.4 11.6 549.7 53.4 770 475.5 220.4 422.1 80.6 821.5-255.1 960.2-320.1 132.2-647.1 134.5-647.1 134.5z"/>
  <path class="s2" d="m816 1427.3c0.6-6.8-52.2-19.2-41.8-71.4 10.5-52.1 67-40 80.9-45.2 13.9-5.2 66.1-36.5 68.7-78.3 2.6-41.7 61.8-76.5 117.4-76.5 55.7 0 77.4 58.3 77.4 58.3 0 0 116.6-28.7 125.3 64.3 8.7 93.1-72.2 147-74 148.8-1.7 1.7-36.5 82.6-103.5 82.6-66.9 0-120.8-41.8-160.9-43.5-40-1.7-94.8 15.7-89.5-39.1z"/>
  <path class="s3" d="m790.9 1397.4c0 0 4.8-40.6 25.1-49.3 20.3-8.7 54.1 4.7 96 0 42-4.6 49.5-30.1 49.5-30.1l-33.5 5.6h-21.1c0 0 29.1-30.6 43.6-57.2 14.5-26.7 10.4-51.1 52.2-71.9 41.7-20.9 98.4-9 98.4-9 0 0-20.9-40.3-92.4-22.9-71.6 17.4-82.6 58.1-82.6 58.1 0 0-11 44.5-41.1 68.9-30.2 24.3-68.5 23.8-73.7 28.4-5.2 4.6-55.8 24.9-20.4 79.4zm938.8-1194.5c-32.3-21.2-77.8-41.8-129.9-57.2-51.2-15-99.6-22.4-138-22.5-68.8-11.3-124.9-13.8-160.2-13.2-70.8 1.4-171.9-34-222.9-54.3-51-20.4-74-38.3-74-38.3 0 0-20.9 43-16.9 83.5 4.1 40.6 16 88 16 88 0 0-82.6-4.5-154.3 25.5-71.8 30-77.5 72.7-77.5 72.7l29.2 3.4c0 0 82.6-62.2 163.1-68.2 80.4-6.1 115.6 7.3 116.1-1.8 0.4-9.1-56.6-60-47.9-140 5.7-6.5 106.1 69.1 253.1 75.2 30.8 1.3 62.4 2.9 94.7 5.5 3 35.8 79.4 85.4 180.9 115.3 105.2 31 199.2 29.7 216.7-2 178.3 99.8 330.5 318.7 330.5 309.1 0-9.2-137.4-267.8-378.7-380.7zm-1148.1 846.3c0 0-3.4-339.5 104.5-499.5 107.8-160 208.1-224.4 208.1-224.4 0 0-213.5 40.4-288.7 306.7-73.1 258.6-23.9 417.2-23.9 417.2z"/>
  <path class="s4" d="m827.3 1393.3c1.1-1.1 34.5-21.7 72.5-22.9 37.9-1.1 103.4 7.3 138.8-27.5 35.4-34.8 133.4-84.1 162.4-58.6 29 25.6-37.7 143-37.7 143 0 0-16.8 48.2-44.7 61-27.8 12.9-50.8 24.9-75.6 19.9-24.8-5-85-37.2-89-38.3-4.1-1.2-42-9.3-42-9.3 0 0 87.2 3.5 137.6-27.2 50.5-30.8 56-87 103.1-102.7 0 0-14.6-12.6-53.6 13.6-39 26.1-82.5 63.5-123.4 68-40.9 4.5-89.6-20.7-107.8-20.7-18.3 0-40.6 1.7-40.6 1.7z"/>
  <path class="s4" d="m615.3 1434.5c0 0 107.3 189 668.6 145 561.2-44.1 820.4-383.9 871.4-629.7 37.2-175.1-37.9-335.9-37.9-335.9 0 0 222.8 440.1-37.9 764.2 0 0-105.9 138.1-364.6 218.4-258.8 80.4-579.4 112.9-791.4 54.9-211.9-58-287.2-142.1-308.2-216.9z"/>
  <path fill-rule="evenodd" class="s5" d="m1191.6 1700c-33.3 0-137.7-2.2-251.8-27.2-182.8-40-300.6-120.4-340.7-232.5-30.3-79.5-26.9-122.4-22.7-176.6 3.7-48.4 8-103.2-10.5-204.1-11.8-64.6-34-233.3 14.5-404.4 45.3-160.1 137.4-275 273.8-341.8-17.4-4.7-47.3-8.6-88-2.9-6.5 0.9-12.9-1.9-16.6-7.3-3.7-5.3-4-12.3-1-18 2.6-4.7 61.4-109.4 233.9-113.5-11.2-30.8-21.7-86.3 3.9-159.9 1.8-5 5.7-9 10.8-10.7 5-1.7 10.6-0.9 15 2 1.2 0.8 124.3 81.1 323.1 92.2 113.8 6.4 248.7 21.6 386.1 85.4 166.2 77.2 300.2 211.6 398.2 399.3 114.6 219.6 139.3 446.4 69.4 638.4-57.5 157.9-175.8 280.6-333.2 345.7-316.6 130.7-644.2 135.7-653.4 135.8-1 0-4.7 0.1-10.8 0.1zm-386.8-1426.7c49.6 0 89.8 12.5 97.4 32.6 3.9 10.2 0.2 21-9.4 27.4q-1.3 0.8-2.7 1.4c-288.2 126-336.5 465.9-290.3 718.7 19.3 105.3 14.6 165 10.9 213-4 51.8-6.9 89.3 20.7 162 87.7 245.5 565.5 237.1 570.3 237.1h0.3c3.2-0.1 327.6-3.9 640.6-133.3 148.4-61.2 259.9-176.9 314-325.5 66.6-182.9 42.6-399.8-67.5-610.8-227.9-436.5-597.8-457.3-755.7-466.2-164.1-9.2-277.2-62.3-320.7-86.3-22.1 84.1 9.8 133.9 11.2 136.1 3.6 5.4 3.9 12.3 0.7 18-3.2 5.6-9.2 9-15.6 8.8-113.9-4.3-177 37.4-207.2 67.1q1.5-0.1 3-0.1z"/>
  <path class="s5" d="m1314.1 697c64.5 82.1 137.3 130.3 241.2 147.4 3.2 0.5 5.3 3.6 4.7 6.8-0.5 2.5-2.5 4.3-4.8 4.6-25.9 4-52.6 2.8-78.8-2.3-65.5-13.3-125.8-55.8-157.9-114.7-6.2-11.9-11.7-23.8-14.9-37.2-0.8-3.1 1.1-6.3 4.3-7 2.4-0.6 4.8 0.5 6.2 2.4zm-485.5 52c-0.3 68.5-60 121.7-122 139.7-17.2 4.7-35.2 7.4-53 7.6-3.2 0.1-5.9-2.5-6-5.7 0-2.5 1.5-4.6 3.7-5.6 25.7-12.3 51.5-23 75.1-39 30.4-19.3 55.8-45.6 76.3-75.3 5.3-7.7 10.3-16.3 15-24.5 2.7-5 11-2.9 10.9 2.8zm722.3 291.5c4.9 86.4-44.4 159.3-110.1 163-65.7 3.7-122.8-63.3-127.7-149.6-4.8-86.3 44.5-159.3 110.1-163 65.7-3.7 122.9 63.3 127.7 149.6z"/>
  <path class="s6" d="m1449.2 985.8c5.1 23.8-7.4 46.6-27.8 50.9-20.4 4.4-41-11.3-46.1-35.1-5.1-23.8 7.3-46.6 27.7-51 20.4-4.4 41.1 11.4 46.2 35.2z"/>
  <path class="s7" d="m1503 1103.2c3.8 7.4-3.7 18.9-16.9 25.8-13.2 6.9-27 6.5-30.8-0.9-3.8-7.3 3.7-18.9 16.9-25.7 13.2-6.9 27-6.5 30.8 0.8z"/>
  <path class="s5" d="m692.2 1095.3c11 81.7 66.6 142 124.2 134.5 57.6-7.5 95.3-79.8 84.3-161.6-11.1-81.8-66.7-142-124.3-134.5-57.6 7.5-95.3 79.8-84.2 161.6z"/>
  <path class="s6" d="m770.7 1027c-0.2 23.1 14.6 42.5 33 43.1 18.5 0.7 33.6-17.5 33.8-40.6 0.3-23.2-14.5-42.5-33-43.2-18.5-0.7-33.6 17.5-33.8 40.7z"/>
  <path class="s7" d="m744.8 1146.1c-2 7.5 6.6 17.1 19.2 21.3 12.6 4.3 24.5 1.6 26.5-5.9 2.1-7.5-6.5-17.1-19.2-21.3-12.6-4.3-24.5-1.6-26.5 5.9z"/>
  <path fill-rule="evenodd" class="s5" d="m1066.4 1527.1c-42 0-79.3-15.1-109.3-27.3-20.6-8.4-38.4-15.6-52.3-16.2-7.6-0.3-15.9 0.1-24.8 0.6-25.8 1.3-52.4 2.8-69.1-14.7-8.2-8.5-12.3-20.2-12.5-34.7-14.2-8.9-51.1-32.1-41.1-82.2 10.7-53.4 58.7-56 81.8-57.2 3.7-0.2 8.8-0.5 10.3-0.9 10.8-4.1 55.3-31.6 57.2-63.1 3.4-54.6 73.7-92.7 134.6-92.7 49.2 0 76 36 87.2 56.2 22.2-3.2 66.1-5.7 97.7 16.7 20.5 14.6 32.2 36.6 34.9 65.3 8 85.5-50.2 140.8-77.7 161.8-30 57-71.5 88.4-116.9 88.4zm-167.2-78q3.6 0 7.1 0.1c19.9 0.9 41.2 9.5 63.8 18.7 28.6 11.6 61 24.8 96.3 24.8 32.2 0 63-25.1 86.8-70.7 1.6-3 2.5-4.9 4.6-6.9 0.3-0.3 1.3-1.2 3-2.5 22-16.5 72.5-62.4 65.9-132.5-1.7-18.5-8.4-31.7-20.5-40.3-30.1-21.5-83-9-83.5-8.9-8.5 2.1-17.2-2.5-20.2-10.7-0.7-1.9-18.5-47.1-61.3-47.1-48.7 0-98.3 29.9-100.2 60.4-3.1 49.5-59.6 85.8-79.9 93.3-5.6 2.2-12 2.5-20.1 2.9-26 1.4-44.8 4.4-49.9 29.6-5 25 8.7 35.8 25.7 46.4 7.8 4.8 17.5 10.8 16.3 23.2-0.8 8.2 0.2 14.2 2.6 16.8 5.9 6 26.2 5 42.5 4.1 6.9-0.4 14-0.7 21-0.7zm-100.4-23.5v0.1z"/>
  <path class="s5" d="m798.7 1427.3c0.2-25.5 24.7-43.8 47-47.1 19.5-3.4 37.2-1.6 54.2 1.6 30.9 5.7 58.5 18.8 88.6 13.6 28.8-5.4 54.5-25.3 78.7-41.9 26.8-19.6 59.6-44 93.6-22 1.3 0.8 0.7 3-0.9 2.8-8.1-0.5-15.9-0.9-23 0.5-22.3 5-37.2 24.2-55.1 37.7-29.6 24.1-60.5 50.9-100.8 55-43.3 5.1-86.9-20.3-128.6-13.1-9.2 2.2-16.4 4.9-19.1 13.1-0.1 0.1-0.1 1-0.1-0.2-0.7 22.7-33.8 22.7-34.5 0zm54.5-131.3c29.2 8.3 59.4 15.1 90 13.8 10.3-0.5 20.2-1.3 33.2 1 1.1 0.2 1.8 1.6 1.1 2.6-21.8 31.2-85.7 28.6-118.8 20.4-5.9-1.5-11.2-3.1-17.5-5.6-20.6-8.7-9.2-39.1 12-32.2z"/>
  <path class="s3" d="m1731.2 412.3c-2.5 20.6-32.6 33.8-67.2 29.6-34.7-4.3-60.7-24.4-58.2-44.9 2.6-20.6 32.7-33.8 67.3-29.6 34.6 4.2 60.7 24.4 58.1 44.9z"/>
</svg>