<svg version="1.2"
  xmlns="http://www.w3.org/2000/svg" viewBox="0 0 310 310">
  <title>Duck silhouette</title>
  <path fill="#f8be07" d="m182.5 21.2c-13.6 1.5-27.9 7.2-41.5 16.5-5.9 4-6.9 4.4-10.7 3.9-2.3-0.3-6.8-1.5-10-2.6-7.1-2.5-10-2.5-10.7-0.2-0.8 2.4 0.9 7.8 3.9 12.3l2.4 3.8-2.7 0.3c-6.6 0.7-1.4 11.5 6.8 13.9l3.8 1.1-1.1 3.7c-0.6 2-1.1 9.4-1.1 16.6 0 14.1 1.5 21.5 6.1 31.3 2.9 6.2 12.7 17.1 19.5 21.6l4.7 3.2-13.2 1.1c-24.1 2.2-44.8 7.6-64 16.7-9.3 4.4-10 4.6-13.5 3.5-11.1-3.6-23-11.7-36.4-24.7-6.4-6.2-10.2-9.3-11.4-9-2.9 0.5-3.7 6.3-2.1 14.3 0.8 3.9 1.3 7.2 1.2 7.3-0.2 0.2-1.6-1.5-3.1-3.7-5.3-8.1-8.8-4.4-8.9 9.4 0 9.7 1.8 15.2 7.2 22.3 2 2.6 2.7 4.8 2.8 8.6 0.1 3.9 1.3 7.7 5.2 15.7 14.5 30.4 36.8 53.5 64.7 66.9 22 10.6 41.8 14.1 80.6 14.1 30.9 0.1 48.8-1.9 68.7-7.7 17.9-5.2 29-12.5 37.9-24.9 11.8-16.6 15.7-35 11.8-55.6-2.7-14.4-9.3-24.7-27.5-42.7-11.2-11.1-12.5-13.5-9.1-16.5 1.5-1.3 2-1.4 4.2-0.2 3.5 2 8.8 1.8 18.9-0.6l8.8-2.1 7.5 2.1c9.4 2.7 13.8 2.7 17.2 0 3.2-2.5 3.4-6.6 0.6-10.2-1.1-1.4-2-2.9-2-3.4 0-0.5 1.8-2.7 4-4.8 4.6-4.5 8-12.5 8-18.8 0-5.6-1.8-11.7-3.6-12.4-0.9-0.3-5.2 0.9-9.6 2.6-13.9 5.5-19.2 5.1-27-1.7-3.2-2.9-3.6-3.7-4.1-9.9-1.1-13.5-9.6-30.4-21.9-43.8-11.5-12.4-17.8-15.4-37.4-17.5-10.5-1.1-12.1-1.1-23.9 0.2zm45.7 70.5c2.3 2 2.4 7.1 0.2 8-2.1 0.8-4.4-2.2-4.4-5.7 0-4.2 1.3-4.9 4.2-2.3z"/>
</svg>