<svg version="1.2"
  xmlns="http://www.w3.org/2000/svg" viewBox="0 0 90 90">
  <title>Logout</title>
  <path fill="currentColor" d="m88.3 42l-23.7-23.7c-1.6-1.7-4.3-1.7-6 0l-3 3c-1.6 1.6-1.6 4.3 0 6l11.4 11.3h-33.9c-2.4 0-4.3 1.9-4.3 4.3v4.2c0 1.2 0.5 2.2 1.3 3 0.8 0.8 1.9 1.3 3 1.3h33.9l-11.4 11.3c-1.6 1.7-1.6 4.4 0 6l3 3c1.7 1.7 4.4 1.7 6 0l23.7-23.7c1.7-1.7 1.7-4.3 0-6zm-39.1 34.8h-36v-63.6h36c1.2 0 2.3-0.5 3.1-1.3 0.7-0.8 1.2-1.9 1.2-3v-4.2c0-1.2-0.5-2.2-1.2-3-0.8-0.8-1.9-1.3-3.1-1.3h-44.5c-2.4 0-4.3 1.9-4.3 4.3v80.6c0 1.2 0.5 2.2 1.3 3 0.8 0.8 1.8 1.3 3 1.3h44.5c1.2 0 2.3-0.5 3.1-1.3 0.7-0.8 1.2-1.8 1.2-3v-4.2c0-1.1-0.5-2.2-1.2-3-0.8-0.8-1.9-1.3-3.1-1.3z"/>
</svg>